<svg width="222" height="222" viewBox="0 0 222 222" fill="none" xmlns="http://www.w3.org/2000/svg">
<!-- Outer border ring split out of carousel-tile-selected.svg (the small
     stair-step sub-paths). Pairs with carousel-tile-selected-fill.svg. -->
<path d="M210 222H12V220H210V222ZM12 220H8V218H12V220ZM214 220H210V218H214V220ZM8 218H6V216H8V218ZM216 218H214V216H216V218ZM6 216H4V214H6V216ZM218 216H216V214H218V216ZM4 214H2V210H4V214ZM220 214H218V210H220V214ZM2 210H0V12H2V210ZM222 210H220V12H222V210ZM4 12H2V8H4V12ZM220 12H218V8H220V12ZM6 8H4V6H6V8ZM218 8H216V6H218V8ZM8 6H6V4H8V6ZM216 6H214V4H216V6ZM12 4H8V2H12V4ZM214 4H210V2H214V4ZM210 2H12V0H210V2Z" fill="white"/>
</svg>
