<svg width="442" height="397" viewBox="0 0 442 397" fill="none" xmlns="http://www.w3.org/2000/svg">
<path d="M430 397H12V395H430V397ZM12 395H8V393H12V395ZM434 395H430V393H434V395ZM8 393H6V391H8V393ZM436 393H434V391H436V393ZM6 391H4V389H6V391ZM438 391H436V389H438V391ZM4 389H2V385H4V389ZM440 389H438V385H440V389ZM2 385H0V12H2V385ZM442 385H440V12H442V385ZM4 12H2V8H4V12ZM440 12H438V8H440V12ZM6 8H4V6H6V8ZM438 8H436V6H438V8ZM8 6H6V4H8V6ZM436 6H434V4H436V6ZM12 4H8V2H12V4ZM434 4H430V2H434V4ZM430 2H12V0H430V2Z" fill="white"/>
</svg>
