<svg width="19" height="19" viewBox="0 0 19 19" fill="none" xmlns="http://www.w3.org/2000/svg">
<g clip-path="url(#clip0_93_4501)">
<path d="M13 1H15V2H16V3H17V4H18V6H19V13H18V15H17V16H16V17H15V18H13V19H6V18H4V17H3V16H2V15H1V13H0V6H1V4H2V3H3V2H4V1H6V0H13V1ZM6 5V6.92871H6.63672V7.57129H7.27246V8.21387H7.90918V8.85742H8.5459V10.1426H7.90918V10.7861H7.27246V11.4287H6.63672V12.0713H6V14H7.27246V12.7139H7.90918V12.0713H8.5459V11.4287H9.18164V10.7861H9.81836V11.4287H10.4541V12.0713H11.0908V12.7139H11.7275V14H13V12.0713H12.3633V11.4287H11.7275V10.7861H11.0908V10.1426H10.4541V8.85742H11.0908V8.21387H11.7275V7.57129H12.3633V6.92871H13V5H11.7275V6.28613H11.0908V6.92871H10.4541V7.57129H9.81836V8.21387H9.18164V7.57129H8.5459V6.92871H7.90918V6.28613H7.27246V5H6Z" fill="white"/>
</g>
<defs>
<clipPath id="clip0_93_4501">
<rect width="19" height="19" fill="white"/>
</clipPath>
</defs>
</svg>
