<svg width="19" height="19" viewBox="0 0 19 19" fill="none" xmlns="http://www.w3.org/2000/svg">
<g clip-path="url(#clip0_93_4514)">
<path d="M13 1H15V2H16V3H17V4H18V6H19V13H18V15H17V16H16V17H15V18H13V19H6V18H4V17H3V16H2V15H1V13H0V6H1V4H2V3H3V2H4V1H6V0H13V1ZM6 12V14H13V13H7V12H6ZM7 11V12H8V11H7ZM8 10V11H9V10H8ZM9 9V10H10V9H9ZM10 8V9H11V8H10ZM11 7V8H12V7H11ZM6 5V6H12V7H13V5H6Z" fill="#FFFFFF"/>
</g>
<defs>
<clipPath id="clip0_93_4514">
<rect width="19" height="19" fill="#FFFFFF"/>
</clipPath>
</defs>
</svg>
