<svg width="19" height="19" viewBox="0 0 19 19" fill="none" xmlns="http://www.w3.org/2000/svg">
<g clip-path="url(#clip0_93_4493)">
<path d="M13 1H15V2H16V3H17V4H18V6H19V13H18V15H17V16H16V17H15V18H13V19H6V18H4V17H3V16H2V15H1V13H0V6H1V4H2V3H3V2H4V1H6V0H13V1ZM8.5459 5V6.28613H7.90918V8.21387H7.27246V10.1426H6.63672V12.0713H6V14H7.27246V12.0713H11.7275V14H13V12.0713H12.3633V10.1426H11.7275V8.21387H11.0908V6.28613H10.4541V5H8.5459ZM9.81836 6.92871V8.21387H10.4541V10.1426H11.0908V10.7861H7.90918V10.1426H8.5459V8.21387H9.18164V6.92871H9.81836Z" fill="white"/>
</g>
<defs>
<clipPath id="clip0_93_4493">
<rect width="19" height="19" fill="white"/>
</clipPath>
</defs>
</svg>
