<svg width="19" height="19" viewBox="0 0 19 19" fill="none" xmlns="http://www.w3.org/2000/svg">
<g clip-path="url(#clip0_93_4526)">
<path d="M13 1H15V2H16V3H17V4H18V6H19V13H18V15H17V16H16V17H15V18H13V19H6V18H4V17H3V16H2V15H1V13H0V6H1V4H2V3H3V2H4V1H6V0H13V1ZM7.14258 13.4287V15H11.8574V13.4287H7.14258ZM5.57129 11.8574V13.4287H7.14258V11.8574H5.57129ZM11.8574 11.8574V13.4287H13.4287V11.8574H11.8574ZM4 7.14258V11.8574H5.57129V7.14258H4ZM13.4287 7.14258V11.8574H15V7.14258H13.4287ZM5.57129 5.57129V7.14258H7.14258V5.57129H5.57129ZM11.8574 5.57129V7.14258H13.4287V5.57129H11.8574ZM7.14258 4V5.57129H11.8574V4H7.14258Z" fill="#FFFFFF"/>
</g>
<defs>
<clipPath id="clip0_93_4526">
<rect width="19" height="19" fill="#FFFFFF"/>
</clipPath>
</defs>
</svg>
