<svg width="19" height="19" viewBox="0 0 19 19" fill="none" xmlns="http://www.w3.org/2000/svg">
<g clip-path="url(#clip0_93_4518)">
<path d="M13 1H15V2H16V3H17V4H18V6H19V13H18V15H17V16H16V17H15V18H13V19H6V18H4V17H3V16H2V15H1V13H0V6H1V4H2V3H3V2H4V1H6V0H13V1ZM7.5 13V14H11.5V13H7.5ZM6.5 6V13H7.5V6H6.5ZM11.5 12V13H12.5V12H11.5ZM11.5 6V7H12.5V6H11.5ZM7.5 5V6H11.5V5H7.5Z" fill="#FFFFFF"/>
</g>
<defs>
<clipPath id="clip0_93_4518">
<rect width="19" height="19" fill="#FFFFFF"/>
</clipPath>
</defs>
</svg>
