<svg width="19" height="19" viewBox="0 0 19 19" fill="none" xmlns="http://www.w3.org/2000/svg">
<g clip-path="url(#clip0_93_4615)">
<path d="M13 1H15V2H16V3H17V4H18V6H19V13H18V15H17V16H16V17H15V18H13V19H6V18H4V17H3V16H2V15H1V13H0V6H1V4H2V3H3V2H4V1H6V0H13V1ZM5 12.2002V14H6.7998V12.2002H5ZM12.2002 12.2002V14H14V12.2002H12.2002ZM6.7998 10.4004V12.2002H8.59961V10.4004H6.7998ZM10.4004 10.4004V12.2002H12.2002V10.4004H10.4004ZM8.59961 8.59961V10.4004H10.4004V8.59961H8.59961ZM6.7998 6.7998V8.59961H8.59961V6.7998H6.7998ZM10.4004 6.7998V8.59961H12.2002V6.7998H10.4004ZM5 5V6.7998H6.7998V5H5ZM12.2002 5V6.7998H14V5H12.2002Z" fill="#FFFFFF"/>
</g>
<defs>
<clipPath id="clip0_93_4615">
<rect width="19" height="19" fill="#FFFFFF"/>
</clipPath>
</defs>
</svg>
