<svg width="19" height="19" viewBox="0 0 19 19" fill="none" xmlns="http://www.w3.org/2000/svg">
<g clip-path="url(#clip0_93_4505)">
<path d="M13 1H15V2H16V3H17V4H18V6H19V13H18V15H17V16H16V17H15V18H13V19H6V18H4V17H3V16H2V15H1V13H0V6H1V4H2V3H3V2H4V1H6V0H13V1ZM6 5V6.28613H6.7002V7.57129H7.40039V8.85742H8.09961V10.1426H8.7998V14H10.2002V10.1426H10.9004V8.85742H11.5996V7.57129H12.2998V6.28613H13V5H11.5996V6.28613H10.9004V7.57129H10.2002V8.85742H8.7998V7.57129H8.09961V6.28613H7.40039V5H6Z" fill="white"/>
</g>
<defs>
<clipPath id="clip0_93_4505">
<rect width="19" height="19" fill="white"/>
</clipPath>
</defs>
</svg>
