<svg width="19" height="19" viewBox="0 0 19 19" fill="none" xmlns="http://www.w3.org/2000/svg">
<g clip-path="url(#clip0_93_4497)">
<path d="M13 1H15V2H16V3H17V4H18V6H19V13H18V15H17V16H16V17H15V18H13V19H6V18H4V17H3V16H2V15H1V13H0V6H1V4H2V3H3V2H4V1H6V0H13V1ZM6.5 5V14H12.2861V13.3574H12.9287V12.7139H13.5713V10.1426H12.9287V9.5H12.2861V8.21387H12.9287V6.28613H12.2861V5.64258H11.6426V5H6.5ZM11.6426 10.1426V10.7861H12.2861V12.0713H11.6426V12.7139H7.78613V10.1426H11.6426ZM11 6.28613V6.92871H11.6426V8.21387H11V8.85742H7.78613V6.28613H11Z" fill="white"/>
</g>
<defs>
<clipPath id="clip0_93_4497">
<rect width="19" height="19" fill="white"/>
</clipPath>
</defs>
</svg>
