<svg width="19" height="19" viewBox="0 0 19 19" fill="none" xmlns="http://www.w3.org/2000/svg">
<g clip-path="url(#clip0_93_4530)">
<path d="M13 1H15V2H16V3H17V4H18V6H19V13H18V15H17V16H16V17H15V18H13V19H6V18H4V17H3V16H2V15H1V13H0V6H1V4H2V3H3V2H4V1H6V0H13V1ZM4 11.25V14H15V11.25H13.625V12.625H5.375V11.25H4ZM5.375 8.5V11.25H6.75V8.5H5.375ZM12.25 8.5V11.25H13.625V8.5H12.25ZM6.75 5.75V8.5H8.125V5.75H6.75ZM10.875 5.75V8.5H12.25V5.75H10.875ZM8.125 3V5.75H10.875V3H8.125Z" fill="#FFFFFF"/>
</g>
<defs>
<clipPath id="clip0_93_4530">
<rect width="19" height="19" fill="#FFFFFF"/>
</clipPath>
</defs>
</svg>
