<svg width="24" height="24" viewBox="0 0 24 24" fill="none" xmlns="http://www.w3.org/2000/svg">
<path opacity="0.22" d="M13 21H11V19H13V21ZM10 18H8V16H10V18ZM16 18H14V16H16V18ZM14 16H10V14H14V16ZM6 15H4V13H6V15ZM20 15H18V13H20V15ZM9 13H6V11H9V13ZM18 13H15V11H18V13ZM2 12H0V10H2V12ZM24 12H22V10H24V12ZM15 11H9V9H15V11ZM4 10H2V8H4V10ZM22 10H20V8H22V10ZM8 8H4V6H8V8ZM20 8H16V6H20V8ZM16 6H8V4H16V6Z" fill="#FFFFFF"/>
<path d="M13 21H11V19H13V21ZM10 18H8V16H10V18ZM16 18H14V16H16V18ZM14 16H10V14H14V16Z" fill="#FFFFFF"/>
</svg>
